<svg width="88" height="88" viewBox="0 0 88 88" fill="none" xmlns="http://www.w3.org/2000/svg">
<g filter="url(#filter0_d_561_3933)">
<path d="M82 42C82 19.9086 64.0914 2 42 2C19.9086 2 2 19.9086 2 42C2 64.0914 19.9086 82 42 82C64.0914 82 82 64.0914 82 42Z" fill="#BD9AC4"/>
<path fill-rule="evenodd" clip-rule="evenodd" d="M18.2264 66.8288C23.6181 59.3604 32.3977 54.5 42.3125 54.5C52.0695 54.5 60.7271 59.2069 66.1388 66.4737C59.9318 72.5962 51.4072 76.375 42.0001 76.375C32.7759 76.375 24.4004 72.7419 18.2264 66.8288ZM55.75 34.1875C55.75 41.954 49.7339 48.25 42.3125 48.25C34.8912 48.25 28.875 41.954 28.875 34.1875C28.875 26.421 34.8912 20.125 42.3125 20.125C49.7339 20.125 55.75 26.421 55.75 34.1875Z" fill="white"/>
</g>
<defs>
<filter id="filter0_d_561_3933" x="0" y="0" width="88" height="88" filterUnits="userSpaceOnUse" color-interpolation-filters="sRGB">
<feFlood flood-opacity="0" result="BackgroundImageFix"/>
<feColorMatrix in="SourceAlpha" type="matrix" values="0 0 0 0 0 0 0 0 0 0 0 0 0 0 0 0 0 0 127 0" result="hardAlpha"/>
<feOffset dx="2" dy="2"/>
<feGaussianBlur stdDeviation="2"/>
<feComposite in2="hardAlpha" operator="out"/>
<feColorMatrix type="matrix" values="0 0 0 0 0.737255 0 0 0 0 0.611765 0 0 0 0 0.776471 0 0 0 1 0"/>
<feBlend mode="normal" in2="BackgroundImageFix" result="effect1_dropShadow_561_3933"/>
<feBlend mode="normal" in="SourceGraphic" in2="effect1_dropShadow_561_3933" result="shape"/>
</filter>
</defs>
</svg>
