<svg viewBox="0 0 40 40" fill="none" xmlns="http://www.w3.org/2000/svg" x="0" y="0"><g id="Vector">
<path d="M40,20c0,-11.0457 -8.9543,-20 -20,-20c-11.0457,0 -20,8.9543 -20,20c0,11.046 8.9543,20 20,20c11.0457,0 20,-8.954 20,-20z" fill="currentColor"/>
<path fill-rule="evenodd" clip-rule="evenodd" d="M8.1132,32.414c2.6958,-3.734 7.0856,-6.164 12.043,-6.164c4.8785,0 9.2074,2.353 11.9132,5.987c-3.1035,3.061 -7.3658,4.951 -12.0694,4.951c-4.612,0 -8.7998,-1.817 -11.8868,-4.774zM26.875,16.0938c0,3.8832 -3.0081,7.0312 -6.7188,7.0312c-3.7106,0 -6.7187,-3.148 -6.7187,-7.0312c0,-3.8833 3.0081,-7.0313 6.7187,-7.0313c3.7107,0 6.7188,3.148 6.7188,7.0313z" fill="white"/>
</g></svg>