<svg viewBox="0 0 11.9667 13.3" fill="none" xmlns="http://www.w3.org/2000/svg" x="0" y="0"><path id="Vector_4" d="M8.6504,0.65v2.667M3.3164,0.65v2.667M0.6504,5.983h10.666M0.6504,3.317c0,-0.354 0.14,-0.693 0.39,-0.943c0.25,-0.25 0.589,-0.391 0.943,-0.391h8c0.354,0 0.693,0.141 0.943,0.391c0.25,0.25 0.39,0.589 0.39,0.943v8c0,0.353 -0.14,0.692 -0.39,0.942c-0.25,0.251 -0.589,0.391 -0.943,0.391h-8c-0.354,0 -0.693,-0.14 -0.943,-0.391c-0.25,-0.25 -0.39,-0.589 -0.39,-0.942zM5.3164,9.317c0,0.176 0.071,0.346 0.196,0.471c0.125,0.125 0.294,0.195 0.471,0.195c0.177,0 0.346,-0.07 0.471,-0.195c0.125,-0.125 0.196,-0.295 0.196,-0.471c0,-0.177 -0.071,-0.347 -0.196,-0.472c-0.125,-0.125 -0.294,-0.195 -0.471,-0.195c-0.177,0 -0.346,0.07 -0.471,0.195c-0.125,0.125 -0.196,0.295 -0.196,0.472z" stroke="#ACB5BB" stroke-width="1.3" stroke-linecap="round" stroke-linejoin="round"/></svg>