<svg viewBox="0 0 62 46" fill="none" xmlns="http://www.w3.org/2000/svg" x="0" y="0"><defs><clipPath id="clip3_561_3929">
<rect width="18" height="18" fill="white" transform="translate(14, 14)"/>
</clipPath></defs><g id="Country">
<rect x="0.5" y="-0.5" width="61" height="47" fill="white"/>
<rect x="0.5" y="-0.5" width="61" height="47" stroke="#EDF1F3"/>
<g id="Indonesia" clip-path="url(#clip3_561_3929)">
<g id="Circle top flag">
<rect x="14" y="14" width="18" height="18" rx="9" stroke="black" stroke-width="0.1"/>
<path id="Canton" d="M14,22.634c0.1921,-4.801 4.1448,-8.634 8.9927,-8.634c0.0024,0 0.0049,0 0.0073,0v9h-9z" fill="#D80027"/>
<path id="Canton_2" d="M32,22.634c-0.1921,-4.801 -4.1448,-8.634 -8.9927,-8.634c-0.0024,0 -0.0049,0 -0.0073,0v9h9z" fill="#D80027"/>
</g>
</g>
<g id="arrow-down">
<g id="vuesax/linear/arrow-down">
<g id="arrow-down_2">
<path id="Vector_5" d="M48.96,21.475l-3.26,3.26c-0.385,0.385 -1.015,0.385 -1.4,0l-3.26,-3.26" stroke="#6C7278" stroke-width="1.3" stroke-miterlimit="10" stroke-linecap="round" stroke-linejoin="round"/>
</g>
</g>
</g>
</g></svg>