<svg viewBox="0 0 18 15" fill="none" xmlns="http://www.w3.org/2000/svg" x="0" y="0"><path id="Vector_3" d="M13.4335,0.169c0.1847,-0.134 0.4128,-0.192 0.6377,-0.161c0.2249,0.031 0.4299,0.148 0.5732,0.327c0.1432,0.18 0.2141,0.408 0.1981,0.638c-0.016,0.231 -0.1176,0.447 -0.2842,0.604l-0.0875,0.072l-1.8756,1.365c-0.2693,0.195 -0.4787,0.464 -0.6042,0.776c-0.1254,0.312 -0.1617,0.653 -0.1046,0.985l0.0285,0.138l2.9844,-3.04c0.1607,-0.163 0.3763,-0.258 0.603,-0.265c0.2267,-0.007 0.4475,0.075 0.6177,0.227c0.1701,0.153 0.2767,0.366 0.2983,0.596c0.0215,0.23 -0.0438,0.46 -0.1825,0.643l-0.0741,0.085l-2.9844,3.04c0.6293,0.164 1.3257,-0.036 1.7729,-0.573l0.092,-0.12l1.34,-1.91c0.1322,-0.188 0.3294,-0.317 0.5517,-0.362c0.2223,-0.045 0.453,-0.002 0.6453,0.12c0.1923,0.122 0.3319,0.314 0.3905,0.537c0.0585,0.223 0.0316,0.46 -0.0752,0.664l-0.0598,0.097l-1.3391,1.912c-0.4956,0.706 -1.2247,1.207 -2.0535,1.41c-0.8287,0.203 -1.7016,0.095 -2.4584,-0.304l-0.1607,-0.091l-2.0506,2.088l3.7111,3.781c0.1537,0.156 0.246,0.365 0.2597,0.586c0.0136,0.221 -0.0524,0.439 -0.1856,0.614l-0.0741,0.086c-0.1538,0.156 -0.3583,0.25 -0.5752,0.264c-0.217,0.014 -0.4315,-0.053 -0.6032,-0.189l-0.084,-0.075l-3.7111,-3.782l-3.7111,3.782c-0.1537,0.156 -0.3582,0.25 -0.5752,0.264c-0.217,0.014 -0.4314,-0.053 -0.6032,-0.189l-0.0839,-0.075c-0.1537,-0.157 -0.2461,-0.365 -0.2597,-0.586c-0.0136,-0.221 0.0523,-0.44 0.1856,-0.615l0.0741,-0.085l3.7111,-3.781l-1.4373,-1.464c-0.3782,0.208 -0.7865,0.353 -1.2097,0.43l-0.2232,0.033c-0.5341,0.069 -1.0766,0.01 -1.5846,-0.171c-0.508,-0.182 -0.9676,-0.481 -1.3426,-0.874c-0.8294,-0.846 -1.3034,-1.909 -1.4213,-2.93c-0.116,-1.005 0.1071,-2.082 0.8303,-2.818c0.7222,-0.736 1.7783,-0.964 2.7648,-0.845c1.0025,0.121 2.047,0.603 2.8764,1.448c0.3861,0.382 0.6798,0.85 0.858,1.367c0.1782,0.518 0.2359,1.07 0.1686,1.614c-0.0535,0.459 -0.1848,0.895 -0.3624,1.274l-0.0929,0.186l1.4373,1.464l2.0515,-2.088c-0.4299,-0.748 -0.5813,-1.628 -0.4266,-2.48c0.1548,-0.852 0.6053,-1.619 1.2694,-2.161l0.1535,-0.118z" fill="currentColor"/></svg>