<svg viewBox="0 0 20 21.1173" fill="none" xmlns="http://www.w3.org/2000/svg" x="0" y="0"><path id="Vector_8" fill-rule="evenodd" clip-rule="evenodd" d="M0,10.5591c0,-5.832 4.477,-10.559 10,-10.559c5.523,0 10,4.727 10,10.559c0,5.831 -4.477,10.558 -10,10.558c-5.523,0 -10,-4.727 -10,-10.558zM11,5.2791c0,-0.28 -0.1054,-0.548 -0.2929,-0.746c-0.1875,-0.198 -0.4419,-0.31 -0.7071,-0.31c-0.2652,0 -0.5196,0.112 -0.7071,0.31c-0.1875,0.198 -0.2929,0.466 -0.2929,0.746v1.056h-1c-0.663,0 -1.2989,0.278 -1.7678,0.773c-0.4688,0.495 -0.7322,1.167 -0.7322,1.867c0,0.7 0.2634,1.371 0.7322,1.866c0.4689,0.495 1.1048,0.773 1.7678,0.773h4c0.1326,0 0.2598,0.056 0.3536,0.155c0.0937,0.099 0.1464,0.233 0.1464,0.373c0,0.14 -0.0527,0.275 -0.1464,0.374c-0.0938,0.099 -0.221,0.154 -0.3536,0.154h-5c-0.2652,0 -0.5196,0.111 -0.7071,0.31c-0.1875,0.198 -0.2929,0.466 -0.2929,0.746c0,0.28 0.1054,0.549 0.2929,0.747c0.1875,0.198 0.4419,0.309 0.7071,0.309h2v1.056c0,0.28 0.1054,0.548 0.2929,0.746c0.1875,0.198 0.4419,0.31 0.7071,0.31c0.2652,0 0.5196,-0.112 0.7071,-0.31c0.1875,-0.198 0.2929,-0.466 0.2929,-0.746v-1.056h1c0.663,0 1.2989,-0.278 1.7678,-0.773c0.4688,-0.495 0.7322,-1.167 0.7322,-1.867c0,-0.7 -0.2634,-1.371 -0.7322,-1.866c-0.4689,-0.495 -1.1048,-0.773 -1.7678,-0.773h-4c-0.1326,0 -0.2598,-0.056 -0.3536,-0.155c-0.0937,-0.099 -0.1464,-0.233 -0.1464,-0.373c0,-0.14 0.0527,-0.275 0.1464,-0.374c0.0938,-0.099 0.221,-0.154 0.3536,-0.154h5c0.2652,0 0.5196,-0.111 0.7071,-0.309c0.1875,-0.198 0.2929,-0.467 0.2929,-0.747c0,-0.28 -0.1054,-0.549 -0.2929,-0.747c-0.1875,-0.198 -0.4419,-0.309 -0.7071,-0.309h-2z" fill="currentColor"/></svg>