<svg width="37" height="46" viewBox="0 0 37 46" fill="none" xmlns="http://www.w3.org/2000/svg">
<path fill-rule="evenodd" clip-rule="evenodd" d="M10.9645 15.4645C11.9021 14.5268 13.1739 14 14.5 14H22.5C23.8261 14 25.0979 14.5268 26.0355 15.4645C26.9732 16.4021 27.5 17.6739 27.5 19V21C27.5 21.5523 27.0523 22 26.5 22C25.9477 22 25.5 21.5523 25.5 21V19C25.5 18.2044 25.1839 17.4413 24.6213 16.8787C24.0587 16.3161 23.2956 16 22.5 16H14.5C13.7044 16 12.9413 16.3161 12.3787 16.8787C11.8161 17.4413 11.5 18.2044 11.5 19V21C11.5 21.5523 11.0523 22 10.5 22C9.94772 22 9.5 21.5523 9.5 21V19C9.5 17.6739 10.0268 16.4021 10.9645 15.4645Z" fill="#BD9AC4"/>
<path fill-rule="evenodd" clip-rule="evenodd" d="M18.5 4C16.8431 4 15.5 5.34315 15.5 7C15.5 8.65685 16.8431 10 18.5 10C20.1569 10 21.5 8.65685 21.5 7C21.5 5.34315 20.1569 4 18.5 4ZM13.5 7C13.5 4.23858 15.7386 2 18.5 2C21.2614 2 23.5 4.23858 23.5 7C23.5 9.76142 21.2614 12 18.5 12C15.7386 12 13.5 9.76142 13.5 7Z" fill="#BD9AC4"/>
<path d="M6.516 36.084C6.516 36.78 6.276 37.36 5.796 37.824C5.324 38.28 4.6 38.508 3.624 38.508H2.016V42H0.924V33.636H3.624C4.568 33.636 5.284 33.864 5.772 34.32C6.268 34.776 6.516 35.364 6.516 36.084ZM3.624 37.608C4.232 37.608 4.68 37.476 4.968 37.212C5.256 36.948 5.4 36.572 5.4 36.084C5.4 35.052 4.808 34.536 3.624 34.536H2.016V37.608H3.624ZM8.96522 36.492C9.15722 36.116 9.42922 35.824 9.78122 35.616C10.1412 35.408 10.5772 35.304 11.0892 35.304V36.432H10.8012C9.57722 36.432 8.96522 37.096 8.96522 38.424V42H7.87322V35.424H8.96522V36.492ZM15.2178 42.108C14.6018 42.108 14.0418 41.968 13.5378 41.688C13.0418 41.408 12.6498 41.012 12.3618 40.5C12.0818 39.98 11.9418 39.38 11.9418 38.7C11.9418 38.028 12.0858 37.436 12.3738 36.924C12.6698 36.404 13.0698 36.008 13.5738 35.736C14.0778 35.456 14.6418 35.316 15.2658 35.316C15.8898 35.316 16.4538 35.456 16.9578 35.736C17.4618 36.008 17.8578 36.4 18.1458 36.912C18.4418 37.424 18.5898 38.02 18.5898 38.7C18.5898 39.38 18.4378 39.98 18.1338 40.5C17.8378 41.012 17.4338 41.408 16.9218 41.688C16.4098 41.968 15.8418 42.108 15.2178 42.108ZM15.2178 41.148C15.6098 41.148 15.9778 41.056 16.3218 40.872C16.6658 40.688 16.9418 40.412 17.1498 40.044C17.3658 39.676 17.4738 39.228 17.4738 38.7C17.4738 38.172 17.3698 37.724 17.1618 37.356C16.9538 36.988 16.6818 36.716 16.3458 36.54C16.0098 36.356 15.6458 36.264 15.2538 36.264C14.8538 36.264 14.4858 36.356 14.1498 36.54C13.8218 36.716 13.5578 36.988 13.3578 37.356C13.1578 37.724 13.0578 38.172 13.0578 38.7C13.0578 39.236 13.1538 39.688 13.3458 40.056C13.5458 40.424 13.8098 40.7 14.1378 40.884C14.4658 41.06 14.8258 41.148 15.2178 41.148ZM22.7016 36.324H21.3216V42H20.2296V36.324H19.3776V35.424H20.2296V34.956C20.2296 34.22 20.4176 33.684 20.7936 33.348C21.1776 33.004 21.7896 32.832 22.6296 32.832V33.744C22.1496 33.744 21.8096 33.84 21.6096 34.032C21.4176 34.216 21.3216 34.524 21.3216 34.956V35.424H22.7016V36.324ZM24.5388 34.356C24.3308 34.356 24.1548 34.284 24.0108 34.14C23.8668 33.996 23.7948 33.82 23.7948 33.612C23.7948 33.404 23.8668 33.228 24.0108 33.084C24.1548 32.94 24.3308 32.868 24.5388 32.868C24.7388 32.868 24.9068 32.94 25.0428 33.084C25.1868 33.228 25.2588 33.404 25.2588 33.612C25.2588 33.82 25.1868 33.996 25.0428 34.14C24.9068 34.284 24.7388 34.356 24.5388 34.356ZM25.0668 35.424V42H23.9748V35.424H25.0668ZM28.0199 33.12V42H26.9279V33.12H28.0199ZM35.881 38.46C35.881 38.668 35.869 38.888 35.845 39.12H30.589C30.629 39.768 30.849 40.276 31.249 40.644C31.657 41.004 32.149 41.184 32.725 41.184C33.197 41.184 33.589 41.076 33.901 40.86C34.221 40.636 34.445 40.34 34.573 39.972H35.749C35.573 40.604 35.221 41.12 34.693 41.52C34.165 41.912 33.509 42.108 32.725 42.108C32.101 42.108 31.541 41.968 31.045 41.688C30.557 41.408 30.173 41.012 29.893 40.5C29.613 39.98 29.473 39.38 29.473 38.7C29.473 38.02 29.609 37.424 29.881 36.912C30.153 36.4 30.533 36.008 31.021 35.736C31.517 35.456 32.085 35.316 32.725 35.316C33.349 35.316 33.901 35.452 34.381 35.724C34.861 35.996 35.229 36.372 35.485 36.852C35.749 37.324 35.881 37.86 35.881 38.46ZM34.753 38.232C34.753 37.816 34.661 37.46 34.477 37.164C34.293 36.86 34.041 36.632 33.721 36.48C33.409 36.32 33.061 36.24 32.677 36.24C32.125 36.24 31.653 36.416 31.261 36.768C30.877 37.12 30.657 37.608 30.601 38.232H34.753Z" fill="#BD9AC4"/>
</svg>
