<svg viewBox="0 0 24 24" fill="none" xmlns="http://www.w3.org/2000/svg" x="0" y="0"><g id="li:home">
<path id="Vector (Stroke)" fill-rule="evenodd" clip-rule="evenodd" d="M11.3861,1.211c0.3611,-0.281 0.8668,-0.281 1.2279,0l9,7c0.2436,0.189 0.386,0.48 0.386,0.789v11c0,0.796 -0.316,1.559 -0.8786,2.121c-0.5626,0.563 -1.3257,0.879 -2.1214,0.879h-14c-0.7956,0 -1.5587,-0.316 -2.1213,-0.879c-0.5626,-0.562 -0.8787,-1.325 -0.8787,-2.121v-11c0,-0.309 0.1425,-0.6 0.3861,-0.789zM4,9.489v10.511c0,0.265 0.1054,0.52 0.2929,0.707c0.1876,0.188 0.4419,0.293 0.7071,0.293h14c0.2653,0 0.5196,-0.105 0.7071,-0.293c0.1876,-0.187 0.2929,-0.442 0.2929,-0.707v-10.511l-8,-6.222z" fill="currentColor"/>
<path id="Vector (Stroke)_2" fill-rule="evenodd" clip-rule="evenodd" d="M8,12c0,-0.552 0.4478,-1 1,-1h6c0.5523,0 1,0.448 1,1v10c0,0.552 -0.4477,1 -1,1c-0.5522,0 -1,-0.448 -1,-1v-9h-4v9c0,0.552 -0.4477,1 -1,1c-0.5522,0 -1,-0.448 -1,-1z" fill="currentColor"/>
</g></svg>