<svg viewBox="0 0 20 20" fill="none" xmlns="http://www.w3.org/2000/svg" x="0" y="0"><path id="Vector_2" d="M10,0c5.523,0 10,4.477 10,10c0,5.523 -4.477,10 -10,10c-5.523,0 -10,-4.477 -10,-10c0,-5.523 4.477,-10 10,-10zM10,5c-0.245,0 -0.481,0.09 -0.664,0.253c-0.183,0.162 -0.3,0.387 -0.329,0.63l-0.007,0.117v3h-3c-0.255,0 -0.5,0.098 -0.685,0.273c-0.186,0.175 -0.297,0.414 -0.312,0.668c-0.015,0.255 0.068,0.505 0.231,0.701c0.164,0.195 0.396,0.321 0.649,0.351l0.117,0.007h3v3c0,0.255 0.098,0.5 0.273,0.685c0.175,0.186 0.414,0.297 0.668,0.312c0.255,0.015 0.505,-0.068 0.701,-0.231c0.195,-0.164 0.321,-0.396 0.351,-0.649l0.007,-0.117v-3h3c0.255,0 0.5,-0.098 0.685,-0.273c0.186,-0.175 0.297,-0.414 0.312,-0.668c0.015,-0.255 -0.068,-0.505 -0.231,-0.701c-0.164,-0.195 -0.396,-0.321 -0.649,-0.351l-0.117,-0.007h-3v-3c0,-0.265 -0.105,-0.52 -0.293,-0.707c-0.187,-0.188 -0.442,-0.293 -0.707,-0.293z" fill="currentColor"/></svg>