<svg viewBox="0 0 24 24" fill="none" xmlns="http://www.w3.org/2000/svg" x="0" y="0"><g id="li:user">
<path id="Vector (Stroke)_3" fill-rule="evenodd" clip-rule="evenodd" d="M4.4644,15.464c0.938,-0.937 2.21,-1.464 3.536,-1.464h8c1.326,0 2.597,0.527 3.535,1.464c0.938,0.938 1.465,2.21 1.465,3.536v2c0,0.552 -0.448,1 -1,1c-0.553,0 -1,-0.448 -1,-1v-2c0,-0.796 -0.316,-1.559 -0.879,-2.121c-0.563,-0.563 -1.326,-0.879 -2.121,-0.879h-8c-0.796,0 -1.559,0.316 -2.122,0.879c-0.562,0.562 -0.878,1.325 -0.878,2.121v2c0,0.552 -0.448,1 -1,1c-0.553,0 -1,-0.448 -1,-1v-2c0,-1.326 0.526,-2.598 1.464,-3.536z" fill="currentColor"/>
<path id="Vector (Stroke)_4" fill-rule="evenodd" clip-rule="evenodd" d="M12.0004,4c-1.657,0 -3,1.343 -3,3c0,1.657 1.343,3 3,3c1.656,0 3,-1.343 3,-3c0,-1.657 -1.344,-3 -3,-3zM7.0004,7c0,-2.761 2.238,-5 5,-5c2.761,0 5,2.239 5,5c0,2.761 -2.239,5 -5,5c-2.762,0 -5,-2.239 -5,-5z" fill="currentColor"/>
</g></svg>