<svg width="60" height="60" viewBox="0 0 60 60" fill="none" xmlns="http://www.w3.org/2000/svg">
<rect x="2" y="2" width="56" height="56" rx="28" fill="#BD9AC4"/>
<rect x="2" y="2" width="56" height="56" rx="28" stroke="white" stroke-width="4"/>
<g clip-path="url(#clip0_561_3950)">
<path d="M30 20C35.523 20 40 24.477 40 30C40 35.523 35.523 40 30 40C24.477 40 20 35.523 20 30C20 24.477 24.477 20 30 20ZM30 25C29.7551 25 29.5187 25.09 29.3356 25.2527C29.1526 25.4155 29.0357 25.6397 29.007 25.883L29 26V29H26C25.7451 29.0003 25.5 29.0979 25.3146 29.2728C25.1293 29.4478 25.0178 29.687 25.0028 29.9414C24.9879 30.1958 25.0707 30.4464 25.2343 30.6418C25.3979 30.8373 25.6299 30.9629 25.883 30.993L26 31H29V34C29.0003 34.2549 29.0979 34.5 29.2728 34.6854C29.4478 34.8707 29.687 34.9822 29.9414 34.9972C30.1958 35.0121 30.4464 34.9293 30.6418 34.7657C30.8373 34.6021 30.9629 34.3701 30.993 34.117L31 34V31H34C34.2549 30.9997 34.5 30.9021 34.6854 30.7272C34.8707 30.5522 34.9822 30.313 34.9972 30.0586C35.0121 29.8042 34.9293 29.5536 34.7657 29.3582C34.6021 29.1627 34.3701 29.0371 34.117 29.007L34 29H31V26C31 25.7348 30.8946 25.4804 30.7071 25.2929C30.5196 25.1054 30.2652 25 30 25Z" fill="white"/>
</g>
<defs>
<clipPath id="clip0_561_3950">
<rect width="24" height="24" fill="white" transform="translate(18 18)"/>
</clipPath>
</defs>
</svg>
