<svg viewBox="0 0 80 80" fill="none" xmlns="http://www.w3.org/2000/svg" x="0" y="0"><defs><filter id="filter1_d_561_3929" x="-2" y="-2" width="88" height="88" filterUnits="userSpaceOnUse" color-interpolation-filters="sRGB">
<feFlood flood-opacity="0" result="BackgroundImageFix"/>
<feColorMatrix in="SourceAlpha" type="matrix" values="0 0 0 0 0 0 0 0 0 0 0 0 0 0 0 0 0 0 127 0" result="hardAlpha"/>
<feOffset dx="2" dy="2"/>
<feGaussianBlur stdDeviation="2"/>
<feComposite in2="hardAlpha" operator="out"/>
<feColorMatrix type="matrix" values="0 0 0 0 0.737255 0 0 0 0 0.611765 0 0 0 0 0.776471 0 0 0 1 0"/>
<feBlend mode="normal" in2="BackgroundImageFix" result="effect1_dropShadow_561_3929"/>
<feBlend mode="normal" in="SourceGraphic" in2="effect1_dropShadow_561_3929" result="shape"/>
</filter></defs><g id="Vector_3" filter="url(#filter1_d_561_3929)">
<path d="M80,40c0,-22.091 -17.9086,-40 -40,-40c-22.0914,0 -40,17.909 -40,40c0,22.091 17.9086,40 40,40c22.0914,0 40,-17.909 40,-40z" fill="currentColor"/>
<path fill-rule="evenodd" clip-rule="evenodd" d="M16.2264,64.829c5.3917,-7.469 14.1713,-12.329 24.0861,-12.329c9.757,0 18.4146,4.707 23.8263,11.974c-6.207,6.122 -14.7316,9.901 -24.1387,9.901c-9.2242,0 -17.5997,-3.633 -23.7737,-9.546zM53.75,32.188c0,7.766 -6.0161,14.062 -13.4375,14.062c-7.4213,0 -13.4375,-6.296 -13.4375,-14.062c0,-7.767 6.0162,-14.063 13.4375,-14.063c7.4214,0 13.4375,6.296 13.4375,14.063z" fill="white"/>
</g></svg>