<svg width="26" height="26" viewBox="0 0 26 26" fill="none" xmlns="http://www.w3.org/2000/svg">
<g clip-path="url(#clip0_1206_1781)">
<path d="M4.33333 16.25C4.59868 16.25 4.85478 16.3475 5.05307 16.5238C5.25136 16.7001 5.37804 16.9431 5.40908 17.2066L5.41667 17.3333V20.5833H9.75C10.0261 20.5836 10.2917 20.6894 10.4925 20.8789C10.6933 21.0685 10.8141 21.3275 10.8303 21.6032C10.8465 21.8788 10.7568 22.1502 10.5795 22.362C10.4023 22.5737 10.1509 22.7098 9.87675 22.7424L9.75 22.75H5.41667C4.87004 22.7502 4.34355 22.5437 3.94274 22.172C3.54193 21.8004 3.29641 21.2909 3.25542 20.7458L3.25 20.5833V17.3333C3.25 17.046 3.36414 16.7705 3.5673 16.5673C3.77047 16.3641 4.04602 16.25 4.33333 16.25ZM21.6667 16.25C21.954 16.25 22.2295 16.3641 22.4327 16.5673C22.6359 16.7705 22.75 17.046 22.75 17.3333V20.5833C22.75 21.158 22.5217 21.7091 22.1154 22.1154C21.7091 22.5217 21.158 22.75 20.5833 22.75H16.25C15.9627 22.75 15.6871 22.6359 15.484 22.4327C15.2808 22.2295 15.1667 21.954 15.1667 21.6667C15.1667 21.3793 15.2808 21.1038 15.484 20.9006C15.6871 20.6975 15.9627 20.5833 16.25 20.5833H20.5833V17.3333C20.5833 17.046 20.6975 16.7705 20.9006 16.5673C21.1038 16.3641 21.3793 16.25 21.6667 16.25ZM21.6667 11.9167C21.9428 11.917 22.2084 12.0227 22.4091 12.2123C22.6099 12.4018 22.7308 12.6609 22.7469 12.9365C22.7631 13.2122 22.6734 13.4836 22.4962 13.6953C22.319 13.9071 22.0676 14.0431 21.7934 14.0758L21.6667 14.0833H4.33333C4.05721 14.083 3.79163 13.9773 3.59085 13.7877C3.39007 13.5982 3.26925 13.3391 3.25306 13.0635C3.23688 12.7878 3.32656 12.5164 3.50379 12.3047C3.68101 12.0929 3.9324 11.9569 4.20658 11.9243L4.33333 11.9167H21.6667ZM9.75 3.25C10.0373 3.25 10.3129 3.36414 10.516 3.5673C10.7192 3.77047 10.8333 4.04602 10.8333 4.33333C10.8333 4.62065 10.7192 4.8962 10.516 5.09937C10.3129 5.30253 10.0373 5.41667 9.75 5.41667H5.41667V8.66667C5.41667 8.95398 5.30253 9.22953 5.09937 9.4327C4.8962 9.63586 4.62065 9.75 4.33333 9.75C4.04602 9.75 3.77047 9.63586 3.5673 9.4327C3.36414 9.22953 3.25 8.95398 3.25 8.66667V5.41667C3.25 4.84203 3.47827 4.29093 3.8846 3.8846C4.29093 3.47827 4.84203 3.25 5.41667 3.25H9.75ZM20.5833 3.25C21.158 3.25 21.7091 3.47827 22.1154 3.8846C22.5217 4.29093 22.75 4.84203 22.75 5.41667V8.66667C22.75 8.95398 22.6359 9.22953 22.4327 9.4327C22.2295 9.63586 21.954 9.75 21.6667 9.75C21.3793 9.75 21.1038 9.63586 20.9006 9.4327C20.6975 9.22953 20.5833 8.95398 20.5833 8.66667V5.41667H16.25C15.9627 5.41667 15.6871 5.30253 15.484 5.09937C15.2808 4.8962 15.1667 4.62065 15.1667 4.33333C15.1667 4.04602 15.2808 3.77047 15.484 3.5673C15.6871 3.36414 15.9627 3.25 16.25 3.25H20.5833Z" fill="white"/>
</g>
<defs>
<clipPath id="clip0_1206_1781">
<rect width="26" height="26" fill="white"/>
</clipPath>
</defs>
</svg>
