<svg width="48" height="48" viewBox="0 0 48 48" fill="none" xmlns="http://www.w3.org/2000/svg">
<g filter="url(#filter0_d_1206_1779)">
<rect x="3" y="2" width="40" height="40" rx="10" fill="url(#paint0_linear_1206_1779)"/>
</g>
<g clip-path="url(#clip0_1206_1779)">
<path d="M14.3333 25.25C14.5987 25.25 14.8548 25.3475 15.0531 25.5238C15.2514 25.7001 15.378 25.9431 15.4091 26.2066L15.4167 26.3333V29.5833H19.75C20.0261 29.5836 20.2917 29.6894 20.4925 29.8789C20.6933 30.0685 20.8141 30.3275 20.8303 30.6032C20.8465 30.8788 20.7568 31.1502 20.5795 31.362C20.4023 31.5737 20.1509 31.7098 19.8767 31.7424L19.75 31.75H15.4167C14.87 31.7502 14.3436 31.5437 13.9427 31.172C13.5419 30.8004 13.2964 30.2909 13.2554 29.7458L13.25 29.5833V26.3333C13.25 26.046 13.3641 25.7705 13.5673 25.5673C13.7705 25.3641 14.046 25.25 14.3333 25.25ZM31.6667 25.25C31.954 25.25 32.2295 25.3641 32.4327 25.5673C32.6359 25.7705 32.75 26.046 32.75 26.3333V29.5833C32.75 30.158 32.5217 30.7091 32.1154 31.1154C31.7091 31.5217 31.158 31.75 30.5833 31.75H26.25C25.9627 31.75 25.6871 31.6359 25.484 31.4327C25.2808 31.2295 25.1667 30.954 25.1667 30.6667C25.1667 30.3793 25.2808 30.1038 25.484 29.9006C25.6871 29.6975 25.9627 29.5833 26.25 29.5833H30.5833V26.3333C30.5833 26.046 30.6975 25.7705 30.9006 25.5673C31.1038 25.3641 31.3793 25.25 31.6667 25.25ZM31.6667 20.9167C31.9428 20.917 32.2084 21.0227 32.4091 21.2123C32.6099 21.4018 32.7308 21.6609 32.7469 21.9365C32.7631 22.2122 32.6734 22.4836 32.4962 22.6953C32.319 22.9071 32.0676 23.0431 31.7934 23.0758L31.6667 23.0833H14.3333C14.0572 23.083 13.7916 22.9773 13.5909 22.7877C13.3901 22.5982 13.2692 22.3391 13.2531 22.0635C13.2369 21.7878 13.3266 21.5164 13.5038 21.3047C13.681 21.0929 13.9324 20.9569 14.2066 20.9243L14.3333 20.9167H31.6667ZM19.75 12.25C20.0373 12.25 20.3129 12.3641 20.516 12.5673C20.7192 12.7705 20.8333 13.046 20.8333 13.3333C20.8333 13.6207 20.7192 13.8962 20.516 14.0994C20.3129 14.3025 20.0373 14.4167 19.75 14.4167H15.4167V17.6667C15.4167 17.954 15.3025 18.2295 15.0994 18.4327C14.8962 18.6359 14.6207 18.75 14.3333 18.75C14.046 18.75 13.7705 18.6359 13.5673 18.4327C13.3641 18.2295 13.25 17.954 13.25 17.6667V14.4167C13.25 13.842 13.4783 13.2909 13.8846 12.8846C14.2909 12.4783 14.842 12.25 15.4167 12.25H19.75ZM30.5833 12.25C31.158 12.25 31.7091 12.4783 32.1154 12.8846C32.5217 13.2909 32.75 13.842 32.75 14.4167V17.6667C32.75 17.954 32.6359 18.2295 32.4327 18.4327C32.2295 18.6359 31.954 18.75 31.6667 18.75C31.3793 18.75 31.1038 18.6359 30.9006 18.4327C30.6975 18.2295 30.5833 17.954 30.5833 17.6667V14.4167H26.25C25.9627 14.4167 25.6871 14.3025 25.484 14.0994C25.2808 13.8962 25.1667 13.6207 25.1667 13.3333C25.1667 13.046 25.2808 12.7705 25.484 12.5673C25.6871 12.3641 25.9627 12.25 26.25 12.25H30.5833Z" fill="white"/>
</g>
<defs>
<filter id="filter0_d_1206_1779" x="0" y="0" width="48" height="48" filterUnits="userSpaceOnUse" color-interpolation-filters="sRGB">
<feFlood flood-opacity="0" result="BackgroundImageFix"/>
<feColorMatrix in="SourceAlpha" type="matrix" values="0 0 0 0 0 0 0 0 0 0 0 0 0 0 0 0 0 0 127 0" result="hardAlpha"/>
<feOffset dx="1" dy="2"/>
<feGaussianBlur stdDeviation="2"/>
<feComposite in2="hardAlpha" operator="out"/>
<feColorMatrix type="matrix" values="0 0 0 0 0.737255 0 0 0 0 0.611765 0 0 0 0 0.776471 0 0 0 1 0"/>
<feBlend mode="normal" in2="BackgroundImageFix" result="effect1_dropShadow_1206_1779"/>
<feBlend mode="normal" in="SourceGraphic" in2="effect1_dropShadow_1206_1779" result="shape"/>
</filter>
<linearGradient id="paint0_linear_1206_1779" x1="23" y1="-13.1724" x2="23.2015" y2="42" gradientUnits="userSpaceOnUse">
<stop offset="1" stop-color="#BD9AC4"/>
</linearGradient>
<clipPath id="clip0_1206_1779">
<rect width="26" height="26" fill="white" transform="translate(10 9)"/>
</clipPath>
</defs>
</svg>
