<svg viewBox="0 0 40 40" fill="none" xmlns="http://www.w3.org/2000/svg" x="0" y="0"><defs><filter id="filter5_d_403_583" x="-3" y="-2" width="48" height="48" filterUnits="userSpaceOnUse" color-interpolation-filters="sRGB">
<feFlood flood-opacity="0" result="BackgroundImageFix"/>
<feColorMatrix in="SourceAlpha" type="matrix" values="0 0 0 0 0 0 0 0 0 0 0 0 0 0 0 0 0 0 127 0" result="hardAlpha"/>
<feOffset dx="1" dy="2"/>
<feGaussianBlur stdDeviation="2"/>
<feComposite in2="hardAlpha" operator="out"/>
<feColorMatrix type="matrix" values="0 0 0 0 0.737255 0 0 0 0 0.611765 0 0 0 0 0.776471 0 0 0 1 0"/>
<feBlend mode="normal" in2="BackgroundImageFix" result="effect1_dropShadow_403_583"/>
<feBlend mode="normal" in="SourceGraphic" in2="effect1_dropShadow_403_583" result="shape"/>
</filter><linearGradient id="paint6_linear_403_583" x1="20" y1="-15.172000000000025" x2="20.201000000000022" y2="40" gradientUnits="userSpaceOnUse">
<stop offset="1" stop-color="#BD9AC4"/>
</linearGradient></defs><g id="Group 37059">
<g id="Rectangle 10_3" filter="url(#filter5_d_403_583)">
<rect x="0" y="0" width="40" height="40" rx="10" fill="url(#paint6_linear_403_583)"/>
</g>
<g id="money bag 3">
<path id="Vector_10" d="M26.17,30.04h-11.34c-1.281,0 -2.51,-0.509 -3.415,-1.415c-0.906,-0.905 -1.415,-2.134 -1.415,-3.415c0,-1.193 0.442,-2.343 1.24,-3.23l7.35,-8.17h3.82l7.35,8.17c0.798,0.887 1.24,2.037 1.24,3.23c0,1.281 -0.509,2.51 -1.415,3.415c-0.905,0.906 -2.134,1.415 -3.415,1.415z" stroke="white" stroke-width="1.91" stroke-miterlimit="10" stroke-linecap="square"/>
<path id="Vector_11" d="M24.32,9.04l-0.39,2c-0.166,0.786 -0.597,1.491 -1.222,1.995c-0.625,0.505 -1.405,0.778 -2.208,0.775c-0.809,0.002 -1.593,-0.278 -2.219,-0.79c-0.625,-0.513 -1.053,-1.227 -1.211,-2.02l-0.39,-2z" stroke="white" stroke-width="1.91" stroke-miterlimit="10" stroke-linecap="square"/>
<path id="Vector_12" d="M27.18,10.95l-3.82,1.91" stroke="white" stroke-width="1.91" stroke-miterlimit="10" stroke-linecap="square"/>
<path id="Vector_13" d="M28.14,13.81h-5.73" stroke="white" stroke-width="1.91" stroke-miterlimit="10" stroke-linecap="square"/>
<path id="Vector_14" d="M18.59,25.27h2.39c0.379,0 0.743,-0.151 1.011,-0.419c0.268,-0.268 0.419,-0.632 0.419,-1.011c0.001,-0.189 -0.035,-0.376 -0.106,-0.55c-0.071,-0.175 -0.176,-0.334 -0.309,-0.468c-0.133,-0.133 -0.291,-0.24 -0.465,-0.312c-0.175,-0.073 -0.361,-0.11 -0.55,-0.11h-1c-0.379,0 -0.743,-0.151 -1.011,-0.419c-0.268,-0.268 -0.419,-0.632 -0.419,-1.011c0,-0.191 0.038,-0.38 0.113,-0.557c0.074,-0.176 0.183,-0.335 0.32,-0.469c0.137,-0.133 0.299,-0.237 0.477,-0.307c0.179,-0.069 0.369,-0.102 0.56,-0.097h2.39" stroke="white" stroke-width="1.91" stroke-miterlimit="10" stroke-linecap="square"/>
<path id="Vector_15" d="M20.5,18.59v0.95" stroke="white" stroke-width="1.91" stroke-miterlimit="10" stroke-linecap="square"/>
<path id="Vector_16" d="M20.5,25.27v0.95" stroke="white" stroke-width="1.91" stroke-miterlimit="10" stroke-linecap="square"/>
</g>
</g></svg>