<svg viewBox="0 0 20 17.9497" fill="none" xmlns="http://www.w3.org/2000/svg" x="0" y="0"><path id="Vector_4" fill-rule="evenodd" clip-rule="evenodd" d="M6.16,-0.0002c-0.5288,0 -1.0481,0.148 -1.5054,0.428c-0.4573,0.281 -0.8363,0.684 -1.0986,1.169l-1.993,3.683h-1.163c-0.1061,0 -0.2078,0.044 -0.2828,0.123c-0.0751,0.079 -0.1172,0.187 -0.1172,0.299v0.501c-0.0002,0.189 0.0594,0.372 0.1692,0.521c0.1098,0.148 0.2636,0.254 0.4368,0.3l0.024,0.005c-0.4176,0.915 -0.5762,1.938 -0.457,2.946l0.725,6.125c0.0605,0.511 0.2956,0.981 0.6611,1.321c0.3655,0.341 0.8363,0.529 1.3239,0.529h0.117c0.5304,0 1.0391,-0.223 1.4142,-0.619c0.3751,-0.396 0.5858,-0.933 0.5858,-1.493h10c0,0.56 0.2107,1.097 0.5858,1.493c0.3751,0.396 0.8838,0.619 1.4142,0.619h0.117c0.4876,0 0.9584,-0.188 1.3239,-0.529c0.3655,-0.34 0.6006,-0.81 0.6611,-1.321l0.725,-6.124c0.1192,-1.008 -0.0394,-2.031 -0.457,-2.946l0.024,-0.006c0.1732,-0.046 0.327,-0.152 0.4368,-0.3c0.1098,-0.149 0.1694,-0.332 0.1692,-0.521v-0.501c0,-0.112 -0.0421,-0.22 -0.1172,-0.299c-0.075,-0.079 -0.1767,-0.123 -0.2828,-0.123h-1.163l-1.993,-3.683c-0.2623,-0.485 -0.6413,-0.888 -1.0986,-1.169c-0.4573,-0.28 -0.9766,-0.428 -1.5054,-0.428zM16.422,5.8118l-1.714,-3.168c-0.0875,-0.162 -0.214,-0.296 -0.3666,-0.39c-0.1526,-0.093 -0.326,-0.142 -0.5024,-0.142h-7.678c-0.1764,0 -0.3498,0.049 -0.5024,0.142c-0.1526,0.094 -0.2791,0.228 -0.3666,0.39l-1.714,3.168c-0.0869,0.16 -0.1323,0.342 -0.1317,0.527c0.0006,0.185 0.0472,0.366 0.1351,0.526c0.0879,0.16 0.214,0.293 0.3657,0.385c0.1517,0.093 0.3238,0.141 0.4989,0.141h11.108c0.1751,0 0.3472,-0.048 0.4989,-0.141c0.1517,-0.092 0.2778,-0.225 0.3657,-0.385c0.0879,-0.16 0.1345,-0.341 0.1351,-0.526c0.0006,-0.185 -0.0448,-0.367 -0.1317,-0.527zM3,11.6558v-0.739c0,-0.092 0.0224,-0.182 0.0652,-0.261c0.0427,-0.08 0.1043,-0.146 0.1788,-0.193c0.0744,-0.047 0.159,-0.072 0.2456,-0.074c0.0866,-0.002 0.1722,0.02 0.2484,0.063l2.742,1.563c0.373,0.213 0.218,0.812 -0.206,0.794l-2.314,-0.098c-0.2579,-0.011 -0.5018,-0.127 -0.6807,-0.323c-0.1789,-0.197 -0.279,-0.459 -0.2793,-0.731zM17,10.9168v0.739c0.0002,0.273 -0.0996,0.535 -0.2786,0.732c-0.179,0.197 -0.4232,0.313 -0.6814,0.324l-2.314,0.097c-0.424,0.018 -0.58,-0.581 -0.206,-0.794l2.742,-1.563c0.0762,-0.043 0.1618,-0.065 0.2484,-0.063c0.0866,0.002 0.1712,0.027 0.2456,0.074c0.0745,0.047 0.1361,0.113 0.1788,0.193c0.0428,0.079 0.0652,0.169 0.0652,0.261z" fill="currentColor"/></svg>